# xmcd CD database file
#
# Track frame offsets:
#	150
#	17702
#	33075
#	45932
#	59900
#	73155
#	94942
#	113730
#	126632
#	138002
#	153127
#	164635
#	181427
#	197562
#	217385
#	232625
#	250917
#	267277
#
# Disc length: 3830 seconds
#
# Revision: 0
# Processed by: cddbd v1.5.1PL0 Copyright (c) Steve Scherf et al.
# Submitted via: CDex 1.51
#
DISCID=030ef412
DTITLE=Stephane Grappelli - The Best Of Stephane Grappelli CD2
DYEAR=1900
DGENRE=Jazz
TTITLE0=Lullaby of Birdland
TTITLE1=When The Red, Red Robin Comes Bob, Bob, Bobbin' Along
TTITLE2=Rosetta
TTITLE3=Sweet Sue
TTITLE4=Bye, Bye Blackbird
TTITLE5=Skylark
TTITLE6=My One And Only Love
TTITLE7=Blue Moon
TTITLE8=Just One Of Those Things
TTITLE9=I Get A Kick Out Of You
TTITLE10=Walz Du Passe
TTITLE11=How High The Moon
TTITLE12=All God's Chillun Got Rhythm
TTITLE13=Someone To Watch Over Me/ I Got Rhythm
TTITLE14=I Hear Music
TTITLE15=Honeysuckle Rose
TTITLE16=Limehouse Blues
TTITLE17=Sweet Georgia Brown
EXTD=
EXTT0=
EXTT1=
EXTT2=
EXTT3=
EXTT4=
EXTT5=
EXTT6=
EXTT7=
EXTT8=
EXTT9=
EXTT10=
EXTT11=
EXTT12=
EXTT13=
EXTT14=
EXTT15=
EXTT16=
EXTT17=
PLAYORDER=
